<?xml version="1.0" standalone="no"?>
<!DOCTYPE svg PUBLIC "-//W3C//DTD SVG 20010904//EN"
 "http://www.w3.org/TR/2001/REC-SVG-20010904/DTD/svg10.dtd">
<svg version="1.0" xmlns="http://www.w3.org/2000/svg"
 width="98.000000pt" height="98.000000pt" viewBox="0 0 98.000000 98.000000"
 preserveAspectRatio="xMidYMid meet">
<metadata>
Created by potrace 1.14, written by Peter Selinger 2001-2017
</metadata>
<g transform="translate(0.000000,98.000000) scale(0.100000,-0.100000)"
fill="#000000" stroke="none">
<path d="M0 795 l0 -185 60 0 60 0 0 125 0 125 60 0 60 0 0 -60 0 -60 65 0 65
0 0 60 0 60 -65 0 -65 0 0 60 0 60 -120 0 -120 0 0 -185z"/>
<path d="M730 920 l0 -60 -60 0 -60 0 0 -60 0 -60 60 0 60 0 0 60 0 60 65 0
65 0 0 -125 0 -125 60 0 60 0 0 185 0 185 -125 0 -125 0 0 -60z"/>
<path d="M120 370 l0 -120 60 0 60 0 0 120 0 120 -60 0 -60 0 0 -120z"/>
<path d="M730 370 l0 -120 65 0 65 0 0 120 0 120 -65 0 -65 0 0 -120z"/>
<path d="M370 185 l0 -65 120 0 120 0 0 65 0 65 -120 0 -120 0 0 -65z"/>
</g>
</svg>
